<svg width="111" height="121" viewBox="0 0 111 121" fill="none" xmlns="http://www.w3.org/2000/svg">
<path d="M55.2966 120.796C85.836 120.796 110.593 106.111 110.593 87.9969C110.593 69.8823 85.836 55.1976 55.2966 55.1976C24.7571 55.1976 0 69.8823 0 87.9969C0 106.111 24.7571 120.796 55.2966 120.796Z" fill="#F0F0F0"/>
<path d="M23.0046 105.37C32.1272 105.37 39.5224 101.1 39.5224 95.8322C39.5224 90.5649 32.1272 86.2949 23.0046 86.2949C13.8821 86.2949 6.48682 90.5649 6.48682 95.8322C6.48682 101.1 13.8821 105.37 23.0046 105.37Z" fill="#E0E0E0"/>
<path d="M76.9019 110.762C76.2955 110.77 75.6974 110.621 75.1654 110.329L30.8665 84.7522C30.539 84.595 30.2626 84.3485 30.0692 84.041C29.8757 83.7335 29.7731 83.3777 29.7731 83.0144C29.7731 82.6511 29.8757 82.2953 30.0692 81.9878C30.2626 81.6803 30.539 81.4338 30.8665 81.2766L57.5961 65.8448C58.1308 65.5589 58.7277 65.4093 59.3339 65.4093C59.9402 65.4093 60.5371 65.5589 61.0717 65.8448L105.371 91.4193C106.066 91.8203 106.94 92.2026 106.94 93.1585C106.94 94.1143 106.066 94.4861 105.371 94.895L78.641 110.322C78.1088 110.615 77.5098 110.767 76.9019 110.762Z" fill="#E0E0E0"/>
<path d="M76.3097 108.168L32.0108 82.591C31.69 82.3819 31.4229 82.1 31.2315 81.7683C31.04 81.4366 30.9295 81.0644 30.9089 80.6819V74.875C30.9295 74.4926 31.04 74.1204 31.2315 73.7887C31.4229 73.457 31.69 73.1751 32.0108 72.966L58.7404 57.5341C59.0816 57.36 59.4592 57.2692 59.8423 57.2692C60.2254 57.2692 60.603 57.36 60.9442 57.5341L105.243 83.1087C105.564 83.3178 105.831 83.5997 106.022 83.9314C106.214 84.2631 106.324 84.6353 106.345 85.0178V90.8247C106.324 91.2071 106.214 91.5793 106.022 91.911C105.831 92.2427 105.564 92.5246 105.243 92.7337L78.5135 108.168C78.1719 108.341 77.7944 108.431 77.4116 108.431C77.0287 108.431 76.6513 108.341 76.3097 108.168Z" fill="#55BE88"/>
<path opacity="0.2" d="M106.345 85.0178V90.8273C106.325 91.2093 106.214 91.5811 106.023 91.9124C105.831 92.2436 105.564 92.525 105.243 92.7337L78.5139 108.166C78.1754 108.347 77.796 108.438 77.412 108.431V100.078C77.7959 100.084 78.1751 99.993 78.5139 99.8124L105.243 84.3806C105.814 84.0513 105.852 83.5336 105.355 83.1804C105.645 83.3949 105.884 83.6708 106.056 83.9884C106.227 84.306 106.326 84.6575 106.345 85.0178Z" fill="black"/>
<path opacity="0.1" d="M77.4116 100.078V108.431C77.0275 108.439 76.648 108.347 76.3097 108.166L32.0108 82.591C31.6899 82.3826 31.4227 82.1012 31.2312 81.7699C31.0397 81.4386 30.9293 81.0667 30.9089 80.6846V74.8724C30.9295 74.5127 31.0289 74.1619 31.2 73.8448C31.3712 73.5278 31.6099 73.2522 31.8993 73.0377C31.4055 73.3908 31.4453 73.9086 32.0108 74.2378L76.3123 99.815C76.6506 99.9943 77.0288 100.085 77.4116 100.078Z" fill="black"/>
<path d="M105.243 84.3805L78.5137 99.8151C78.1721 99.9879 77.7947 100.078 77.4118 100.078C77.029 100.078 76.6515 99.9879 76.3099 99.8151L32.0111 74.2378C31.403 73.8873 31.403 73.3165 32.0111 72.966L58.7407 57.5341C59.0819 57.36 59.4595 57.2692 59.8426 57.2692C60.2256 57.2692 60.6033 57.36 60.9445 57.5341L105.243 83.1087C105.851 83.4592 105.851 84.0354 105.243 84.3805Z" fill="#55BE88"/>
<path d="M48.1601 83.7247C47.5786 83.3875 47.037 83.3743 46.5962 83.6318C46.4475 83.7168 45.8289 84.0673 45.6695 84.1628C45.189 84.4602 44.8358 85.0868 44.6978 85.979C44.5405 85.7384 44.3511 85.5204 44.1349 85.3311L44.2942 85.2408C44.6128 85.055 44.7641 84.5877 44.7641 83.9584C44.7641 82.4237 44.0526 81.4944 43.1498 80.974L41.5248 80.0526L40.7628 80.4907V79.6119L39.568 78.9242L38.6758 79.4393V81.2979L37.473 77.7081L36.2782 77.0204L35.3967 77.5249V78.3958C34.94 76.8956 34.0957 75.5973 33.1265 75.037C32.9033 74.8831 32.6426 74.7923 32.3721 74.7741C32.1015 74.7559 31.8311 74.8109 31.5892 74.9335L31.5547 74.9521L30.6811 75.4539C30.2271 75.6769 29.5898 76.4814 29.5898 78.2099C29.5898 80.5651 30.6838 83.0238 32.245 83.9186C32.8477 84.2664 33.3867 84.285 33.8195 84.0327C33.9682 83.9451 34.547 83.6106 34.6904 83.5309C35.0122 83.3354 35.2633 83.0424 35.4073 82.6945V85.5993L36.6021 86.287L37.4943 85.7719V83.9133L38.6758 87.4871L39.8707 88.1748L40.6327 87.7367V88.6156L42.6214 89.7626C43.11 90.0467 43.5056 90.0892 43.7923 89.9272C43.949 89.8422 44.5517 89.4891 44.7004 89.3962C44.8061 89.3369 44.897 89.2543 44.9659 89.1546C45.3987 90.6707 46.2351 91.985 47.2786 92.5903C47.8601 92.9249 48.3831 92.9514 48.808 92.7284C48.9752 92.6408 49.578 92.2797 49.7213 92.1974C50.3878 91.8336 50.8073 90.8406 50.8073 89.4041C50.7967 87.0649 49.6151 84.5664 48.1601 83.7247ZM33.3788 81.7334C33.2865 81.7048 33.1974 81.6666 33.1133 81.6192C32.1361 81.0536 31.7618 79.6358 31.7618 78.433C31.7501 78.0167 31.8186 77.602 31.9636 77.2116C32.0565 77.2371 32.1458 77.2746 32.2291 77.3231C33.1557 77.8542 33.5753 79.3039 33.5753 80.5093C33.5851 80.9259 33.5185 81.3408 33.3788 81.7334ZM42.7197 87.3782V86.6189C42.9415 86.8916 43.065 87.2312 43.0701 87.5827L42.7197 87.3782ZM48.423 90.4211C48.3302 90.3927 48.241 90.3535 48.1574 90.3042C47.1803 89.7413 46.806 88.3208 46.806 87.118C46.7943 86.7017 46.8628 86.2871 47.0078 85.8967C47.0999 85.9246 47.1888 85.962 47.2733 86.0082C48.2026 86.5392 48.6194 87.9889 48.6194 89.1944C48.6293 89.6118 48.5627 90.0276 48.423 90.4211Z" fill="#55BE88"/>
<path d="M75.423 103.153L76.2939 102.659L77.0825 101.798C76.6258 100.683 75.9859 99.7832 75.0646 99.2522C74.5149 98.9362 74.0211 98.9123 73.6175 99.1247C73.4502 99.215 72.8209 99.5788 72.6723 99.669C72.3638 99.8696 72.1239 100.16 71.9846 100.5V97.6219L70.7897 96.9315L69.8976 97.4467V99.3053L68.6868 95.7181L67.492 95.0304L66.7273 95.4739V94.5923L65.5352 93.9047L64.643 94.4171V95.3438C64.1784 93.8754 63.3154 92.6275 62.3649 92.0726L60.8461 91.1964L59.9566 91.7115V97.5369L58.868 94.8977L59.2929 94.6561C59.6619 94.449 59.8876 93.9126 59.8876 93.0364C59.8876 91.4433 59.1495 90.214 58.1777 89.6537L56.3058 88.5731L55.411 89.0802V93.4931L53.9825 87.2216L52.878 86.5844L51.9858 87.0995L49.8617 93.9471L51.1441 94.6879L52.0363 94.1728L52.177 93.6683L53.5258 94.449L53.9135 96.2837L55.1959 97.0245L55.4004 96.9077V97.144L56.5952 97.8316L57.4873 97.3165V96.9369L58.1936 98.7557L59.7124 99.6319L59.9487 99.4964V99.762L61.4648 100.641C62.0595 100.983 62.6145 101.015 63.0579 100.771L63.9819 100.24C64.2667 100.06 64.4928 99.8005 64.6324 99.4938V102.478L65.8246 103.166L66.5866 102.728V103.607L67.7814 104.297L68.6736 103.782V101.923L69.8764 105.51L71.0712 106.201L71.9633 105.686V104.828C72.4094 106.302 73.2192 107.587 74.1512 108.126C74.6822 108.434 75.2425 108.519 75.6912 108.264C75.8425 108.179 76.4134 107.839 76.5568 107.762C76.9842 107.536 77.3215 107.013 77.4622 106.092V104.342L75.423 103.153ZM57.6334 92.9143L57.4953 92.832V92.0009C57.6615 92.2942 57.7433 92.6278 57.7316 92.9647V92.9886L57.6334 92.9143ZM62.041 94.8101C62.5618 95.5727 62.8396 96.4753 62.8375 97.3989C62.8487 97.7961 62.7735 98.1911 62.6171 98.5565C62.4826 98.5287 62.3535 98.4794 62.2348 98.4105L62.0516 98.3016L62.041 94.8101ZM75.3673 105.571C75.3694 105.73 75.3516 105.888 75.3141 106.041C75.2476 106.019 75.1835 105.99 75.123 105.954C74.7621 105.706 74.4786 105.36 74.3052 104.958L75.3673 105.571ZM75.0539 102.94L74.1618 103.463V104.64C73.9197 104.025 73.7936 103.37 73.7901 102.709C73.7751 102.254 73.8593 101.801 74.037 101.382C74.1041 101.403 74.1691 101.43 74.2308 101.464C74.6875 101.729 75.0831 102.234 75.3858 103.134L75.0539 102.94Z" fill="#55BE88"/>
<path opacity="0.2" d="M47.2678 84.2398C48.7229 85.0788 49.9044 87.58 49.9044 89.9352C49.9044 91.3716 49.4849 92.3646 48.8158 92.7284C49.0043 92.6275 49.5725 92.2903 49.7106 92.2133C50.377 91.8495 50.7966 90.8565 50.7966 89.4201C50.7966 87.0649 49.615 84.5637 48.16 83.7247C47.5785 83.3875 47.0368 83.3742 46.5961 83.6318C46.4474 83.7167 45.8287 84.0672 45.6694 84.1628C46.1102 83.8893 46.6678 83.892 47.2678 84.2398Z" fill="black"/>
<path opacity="0.3" d="M42.7191 87.3782V86.6189C42.5671 86.4507 42.3875 86.3098 42.1881 86.202L41.8137 85.9869V87.8933L42.1881 88.1084C42.7537 88.435 43.0643 88.35 43.0643 87.7154C43.0643 87.6677 43.0643 87.6252 43.0643 87.58L42.7191 87.3782Z" fill="black"/>
<path opacity="0.2" d="M38.6649 84.423L38.6755 84.431V81.2873L37.4727 77.7001L36.2779 77.0125L35.3884 77.5276L36.5806 78.2152L38.6649 84.423Z" fill="black"/>
<path opacity="0.1" d="M36.5803 78.2152L37.4725 77.7001L38.6753 81.2873V84.431L36.5803 78.2152Z" fill="black"/>
<path opacity="0.3" d="M42.7166 83.9956C42.7198 83.7285 42.6465 83.466 42.5054 83.2392C42.3642 83.0124 42.1611 82.8308 41.92 82.7158L41.8245 82.6627V84.4018L41.92 84.4576C42.4352 84.7549 42.7166 84.67 42.7166 83.9956Z" fill="black"/>
<path opacity="0.2" d="M44.6894 85.9842C44.5345 85.7426 44.3459 85.5244 44.1291 85.3364L44.2938 85.2408C44.6071 85.0549 44.7584 84.5903 44.7584 83.9636C44.7584 82.429 44.0468 81.4996 43.1441 80.9792L41.5244 80.0526L40.7624 80.4907V79.6118L39.5676 78.9241L38.6754 79.4392L39.8702 80.1269V88.1933L40.6323 87.7552V80.5544L42.2572 81.4943C43.16 82.0254 43.8716 82.9414 43.8716 84.4788C43.8716 85.2195 43.6618 85.7346 43.2158 85.8302C43.8716 86.3852 44.3336 87.2083 44.3336 88.5093C44.3336 89.2474 44.1398 89.744 43.784 89.9378C43.9406 89.8528 44.5433 89.4997 44.692 89.4067C44.7978 89.3475 44.8886 89.2648 44.9575 89.1651C44.744 88.4254 44.6341 87.6596 44.631 86.8896C44.6275 86.5868 44.647 86.2841 44.6894 85.9842Z" fill="black"/>
<path opacity="0.3" d="M48.1596 90.3042C47.1825 89.7413 46.8082 88.3208 46.8082 87.118C46.7965 86.7017 46.865 86.2871 47.0099 85.8966C47.0498 85.9099 47.0896 85.9232 47.1321 85.9418C46.3063 85.578 45.916 86.4941 45.916 87.6331C45.916 88.8359 46.2904 90.2564 47.2675 90.8193C47.849 91.1539 48.2207 90.9229 48.4225 90.4211C48.3306 90.3925 48.2424 90.3533 48.1596 90.3042Z" fill="black"/>
<path opacity="0.2" d="M33.1157 75.037C32.5448 74.7077 32.0164 74.6892 31.581 74.9281L31.5305 74.9573L30.6782 75.4459C30.8237 75.3646 30.9831 75.3115 31.1482 75.2892C31.5278 75.256 31.9078 75.3493 32.2288 75.5547C33.6812 76.3964 34.8628 78.8949 34.8628 81.2527C34.8628 82.6759 34.4486 83.6636 33.8007 84.0354C33.9494 83.9477 34.5256 83.6132 34.6689 83.5335C34.9916 83.3383 35.2437 83.0453 35.3885 82.6971V78.3931C34.9292 76.8929 34.0822 75.5946 33.1157 75.037Z" fill="black"/>
<path opacity="0.3" d="M31.7638 78.433C31.7522 78.0167 31.8207 77.602 31.9656 77.2116C32.0063 77.2234 32.0462 77.2375 32.0851 77.2541C31.2594 76.893 30.8717 77.8064 30.8717 78.9481C30.8717 80.1509 31.2461 81.5687 32.2232 82.1343C32.802 82.4688 33.1737 82.2352 33.3782 81.7333C33.2859 81.7048 33.1969 81.6666 33.1127 81.6192C32.1382 81.0536 31.7638 79.6358 31.7638 78.433Z" fill="black"/>
<path opacity="0.2" d="M58.8703 94.8977L59.2925 94.6561C59.6616 94.449 59.8873 93.9126 59.8873 93.0364C59.8873 91.4433 59.1491 90.214 58.1773 89.6537L56.3054 88.5731L55.4106 89.0802L57.2852 90.1609C58.2543 90.7211 58.9925 91.9584 58.9925 93.5435C58.9925 94.7543 58.5597 95.3172 57.9304 95.2588L59.7333 99.6345L59.9696 99.4991V97.529L58.8703 94.8977Z" fill="black"/>
<path opacity="0.3" d="M74.0397 101.387L74.1273 101.419C73.4423 101.124 72.9006 101.894 72.9006 103.224C72.9006 104.554 73.498 106.052 74.2282 106.477C74.6955 106.742 75.1575 106.633 75.3115 106.049C75.245 106.027 75.1809 105.997 75.1204 105.962C74.7594 105.713 74.476 105.368 74.3026 104.966L74.1592 104.881V104.639C73.9171 104.025 73.791 103.37 73.7875 102.709C73.7749 102.255 73.861 101.804 74.0397 101.387Z" fill="black"/>
<path opacity="0.2" d="M62.3673 92.0726L60.8486 91.1964L59.9591 91.7115L61.4752 92.5877C62.9117 93.4161 64.1171 95.7951 64.1171 98.1423C64.1171 99.5814 63.6684 100.505 62.9913 100.821L63.071 100.787L63.995 100.256C64.2798 100.076 64.5059 99.8164 64.6455 99.5097V95.3437C64.1808 93.8754 63.3259 92.6275 62.3673 92.0726Z" fill="black"/>
<path opacity="0.3" d="M62.0436 98.3096V94.818C61.8578 94.5486 61.6171 94.3215 61.3374 94.1516L61.1515 94.0453V98.8247L61.3374 98.9309C61.9056 99.2601 62.3569 99.0875 62.6092 98.5644C62.4747 98.5367 62.3456 98.4874 62.2268 98.4184L62.0436 98.3096Z" fill="black"/>
<path opacity="0.3" d="M56.6057 97.8423L57.4978 97.3272V96.9475L56.6057 94.6561V97.8423Z" fill="black"/>
<path opacity="0.2" d="M67.7948 96.2359L69.8764 102.446L69.8897 102.454V99.3106L68.6869 95.7208L67.4921 95.0331L66.7301 95.4739V94.5924L65.5379 93.9047L64.6458 94.4198L65.8379 95.1075V103.174L66.6 102.736V95.5482L67.7948 96.2359Z" fill="black"/>
<path opacity="0.3" d="M51.5427 93.3072L51.155 94.6958L52.0472 94.1834L52.1879 93.6789L51.5427 93.3072Z" fill="black"/>
<path opacity="0.3" d="M52.5331 89.9192L51.949 91.9292L53.1305 92.6115L52.5464 89.9272L52.5331 89.9192Z" fill="black"/>
<path opacity="0.3" d="M67.7948 99.2973V104.302V104.305L68.6869 103.79V101.926L67.8081 99.3053L67.7948 99.2973Z" fill="black"/>
<path opacity="0.2" d="M71.9767 100.497V97.6219L70.7819 96.9315L69.8898 97.4466L71.0846 98.137V106.203L71.9767 105.688V104.831C71.7413 104.068 71.6188 103.276 71.613 102.478C71.5915 101.8 71.7155 101.124 71.9767 100.497Z" fill="black"/>
<path opacity="0.2" d="M53.985 87.2349L52.8778 86.595L51.9883 87.1101L53.0928 87.7473L55.2063 97.0351L55.4108 96.9183V93.5011L53.985 87.2349Z" fill="black"/>
<path opacity="0.3" d="M57.4978 92.8399V92.0009C57.3083 91.718 57.0484 91.4893 56.7438 91.3371L56.6057 91.2574V93.3816L56.7438 93.4612C57.1898 93.7268 57.7235 93.9923 57.7342 93.0019L57.6359 92.9488L57.4978 92.8399Z" fill="black"/>
<path opacity="0.2" d="M75.4232 103.153L76.2941 102.659L77.0827 101.798C76.626 100.683 75.9861 99.7832 75.0648 99.2522C74.5152 98.9362 74.0213 98.9123 73.6177 99.1247C73.4664 99.207 72.9353 99.515 72.7256 99.6372C73.1318 99.4247 73.623 99.4513 74.1727 99.7673C75.094 100.298 75.7339 101.198 76.1906 102.311L75.41 103.182C75.4044 103.168 75.3999 103.154 75.3967 103.139L75.0648 102.948L74.162 103.463L76.5809 104.86V106.604C76.4428 107.518 76.1083 108.041 75.6861 108.269H75.702C75.8534 108.184 76.4242 107.844 76.5676 107.767C76.9951 107.542 77.3323 107.019 77.473 106.097V104.347L75.4232 103.153Z" fill="black"/>
<path opacity="0.1" d="M35.3959 82.6892V78.3931C35.3375 78.1966 35.2684 78.0028 35.1968 77.8143L34.3046 78.3241C34.669 79.2552 34.8606 80.2449 34.8702 81.2447C34.8702 82.6679 34.456 83.6556 33.8081 84.0274C33.9568 83.9397 34.5356 83.6052 34.679 83.5255C35.0008 83.33 35.2519 83.0371 35.3959 82.6892Z" fill="black"/>
<path opacity="0.1" d="M39.8704 80.1137L40.7625 79.5986V80.4774L40.6324 80.5544V87.7393L39.8704 88.1801V80.1137Z" fill="black"/>
<path opacity="0.1" d="M53.0931 87.7473L53.9853 87.2349L55.4111 93.5011V96.9183L55.2067 97.0351L53.0931 87.7473Z" fill="black"/>
<path opacity="0.1" d="M58.8708 94.8976L58.4168 95.1632C58.2703 95.2591 58.0932 95.297 57.9203 95.2694L59.7232 99.6451L59.9595 99.5097V97.5395L58.8708 94.8976Z" fill="black"/>
<path opacity="0.1" d="M66.7298 94.5923L65.8376 95.1074V103.174L66.5997 102.736V95.5481L66.7298 95.4738V94.5923Z" fill="black"/>
<path opacity="0.1" d="M67.7948 96.2359L68.6869 95.7208L69.8897 99.3106V102.454L67.7948 96.2359Z" fill="black"/>
<path opacity="0.1" d="M76.1825 102.311L77.0746 101.796L76.294 102.667L75.4019 103.182L76.1825 102.311Z" fill="black"/>
<path opacity="0.1" d="M76.5836 106.604C76.4456 107.518 76.111 108.041 75.6888 108.269H75.7048C75.8561 108.184 76.427 107.844 76.5704 107.767C76.9978 107.542 77.3351 107.019 77.4758 106.097V104.347L76.5836 104.863V106.604Z" fill="black"/>
<path opacity="0.1" d="M64.1175 98.1423C64.1175 99.5814 63.6688 100.505 62.9917 100.821L63.0714 100.787L63.9954 100.256C64.2802 100.076 64.5063 99.8164 64.6459 99.5097V95.3437C64.5954 95.1871 64.5423 95.0331 64.4839 94.8844L63.5918 95.3969C63.9317 96.2727 64.1098 97.2029 64.1175 98.1423Z" fill="black"/>
<path opacity="0.1" d="M50.7967 89.42C50.7852 88.4589 50.6055 87.5073 50.2656 86.6082L49.3735 87.1233C49.7133 88.0224 49.8931 88.9741 49.9045 89.9351C49.9045 91.3716 49.485 92.3646 48.8159 92.7284C49.0044 92.6275 49.5726 92.2903 49.7107 92.2133C50.3772 91.8495 50.7967 90.8565 50.7967 89.42Z" fill="black"/>
<path opacity="0.1" d="M44.3338 88.5094C44.3338 89.2475 44.14 89.744 43.7842 89.9378C43.9408 89.8529 44.5436 89.4997 44.6922 89.4068C44.798 89.3475 44.8888 89.2649 44.9578 89.1652C44.7442 88.4254 44.6343 87.6596 44.6312 86.8897C44.6304 86.5867 44.6526 86.284 44.6976 85.9843C44.5427 85.7427 44.3541 85.5245 44.1373 85.3364L43.4178 85.7533H43.3912C43.3797 85.7611 43.3672 85.7673 43.354 85.7719C43.3117 85.7948 43.266 85.8109 43.2186 85.8197C43.8718 86.3852 44.3338 87.2216 44.3338 88.5094Z" fill="black"/>
<path opacity="0.3" d="M36.5803 81.2766V86.2816L37.4725 85.7665V83.9052L36.5936 81.2819L36.5803 81.2766Z" fill="black"/>
<path opacity="0.1" d="M71.0846 98.137V106.203L71.9767 105.688V104.831C71.7413 104.068 71.6188 103.276 71.613 102.478C71.5919 101.8 71.7159 101.126 71.9767 100.5V97.6219L71.0846 98.137Z" fill="black"/>
<path d="M32.2234 75.5521C33.6784 76.3938 34.86 78.8923 34.86 81.2501C34.86 83.6079 33.7289 84.7815 32.2234 83.9053C30.6754 83.0105 29.5682 80.5518 29.5682 78.1966C29.5682 75.8415 30.7817 74.721 32.2234 75.5521ZM32.2234 82.1343C33.1766 82.6839 33.5696 81.7094 33.5696 80.5066C33.5696 79.3038 33.1501 77.8515 32.2234 77.3204C31.2968 76.7894 30.8719 77.7426 30.8719 78.9454C30.8719 80.1482 31.2463 81.5687 32.2234 82.1343Z" fill="#55BE88"/>
<path d="M36.5802 86.2816L35.3854 85.594V77.5249L36.5802 78.2152L38.6619 84.423V79.426L39.8567 80.1137V88.1801L38.6619 87.4924L36.5802 81.282V86.2816Z" fill="#55BE88"/>
<path d="M42.2573 81.4944C43.16 82.0254 43.8716 82.9414 43.8716 84.4788C43.8716 85.2196 43.6619 85.7347 43.2158 85.8303C43.8716 86.3852 44.3336 87.2083 44.3336 88.5093C44.3336 89.8104 43.707 90.3972 42.621 89.7679L40.6323 88.6208V80.5544L42.2573 81.4944ZM41.9227 84.4575C42.4352 84.7549 42.7193 84.67 42.7193 83.9955C42.7225 83.7284 42.6492 83.466 42.5081 83.2392C42.3669 83.0124 42.1638 82.8308 41.9227 82.7157L41.8272 82.6626V84.4018L41.9227 84.4575ZM42.1883 88.1084C42.7538 88.435 43.0645 88.35 43.0645 87.7154C43.0819 87.4052 43.0083 87.0966 42.8526 86.8277C42.6969 86.5588 42.466 86.3413 42.1883 86.202L41.8139 85.9869V87.8933L42.1883 88.1084Z" fill="#55BE88"/>
<path d="M47.2678 84.2398C48.7228 85.0788 49.9044 87.58 49.9044 89.9351C49.9044 92.2903 48.7733 93.4691 47.2678 92.5903C45.7198 91.6982 44.6285 89.2368 44.6285 86.8817C44.6285 84.5265 45.8287 83.4061 47.2678 84.2398ZM47.2678 90.8193C48.221 91.3689 48.6139 90.3945 48.6139 89.1917C48.6139 87.9889 48.1971 86.5365 47.2678 86.0055C46.3385 85.4744 45.9163 86.4276 45.9163 87.6304C45.9163 88.8332 46.2827 90.2564 47.2678 90.8193Z" fill="#55BE88"/>
<path d="M55.2067 97.0457L53.9242 96.3049L53.5366 94.4702L51.5425 93.3178L51.1549 94.7091L49.8724 93.9684L51.9966 87.1207L53.1011 87.7579L55.2067 97.0457ZM52.5515 89.9378H52.5382L51.9541 91.9478L53.1356 92.6301L52.5515 89.9378Z" fill="#55BE88"/>
<path d="M65.8379 103.174L64.6458 102.486V94.4171L65.8379 95.1074V103.174Z" fill="#55BE88"/>
<path d="M67.7897 104.305L66.5948 103.615V95.5482L67.7897 96.2491L69.8713 102.46H69.8846V97.4466L71.0794 98.1369V106.203L69.8846 105.513L67.8029 99.3052H67.7897V104.305Z" fill="#55BE88"/>
<path d="M76.5835 106.604C76.2968 108.484 75.1922 108.728 74.1647 108.123C72.7548 107.308 71.613 104.78 71.613 102.473C71.613 100.166 72.691 98.9123 74.1647 99.762C75.086 100.293 75.7259 101.193 76.1826 102.306L75.402 103.177C75.0966 102.247 74.6983 101.732 74.2337 101.464C73.4982 101.039 72.9061 101.82 72.9061 103.219C72.9061 104.618 73.5035 106.047 74.2337 106.472C74.8072 106.801 75.3701 106.559 75.3701 105.571L74.162 104.881V103.463L76.5809 104.86L76.5835 106.604Z" fill="#55BE88"/>
<path opacity="0.1" d="M53.0931 81.0218C60.0468 81.0218 65.684 77.7669 65.684 73.7519C65.684 69.7369 60.0468 66.4821 53.0931 66.4821C46.1394 66.4821 40.5023 69.7369 40.5023 73.7519C40.5023 77.7669 46.1394 81.0218 53.0931 81.0218Z" fill="black"/>
<path opacity="0.1" d="M76.581 94.9375C84.3955 94.9375 90.7304 91.2797 90.7304 86.7676C90.7304 82.2554 84.3955 78.5976 76.581 78.5976C68.7665 78.5976 62.4316 82.2554 62.4316 86.7676C62.4316 91.2797 68.7665 94.9375 76.581 94.9375Z" fill="black"/>
<path d="M29.6771 0.0921638L39.1135 5.51933C39.2233 5.59091 39.3146 5.68736 39.3801 5.80085C39.4456 5.91433 39.4835 6.04166 39.4906 6.1725V19.058C39.4834 19.1885 39.4452 19.3153 39.3792 19.428C39.3132 19.5406 39.2212 19.6359 39.1109 19.7059L37.7647 20.4626C37.6471 20.5209 37.5176 20.5512 37.3864 20.5512C37.2551 20.5512 37.1256 20.5209 37.008 20.4626L27.5742 15.0301C27.464 14.959 27.3723 14.8627 27.3067 14.7491C27.2412 14.6355 27.2036 14.508 27.1971 14.377V1.49144C27.2042 1.36131 27.2421 1.23473 27.3076 1.1221C27.3732 1.00947 27.4645 0.914008 27.5742 0.843577L28.923 0.0868534C29.0404 0.0288359 29.1697 -0.000901298 29.3007 2.0808e-05C29.4316 0.000942914 29.5605 0.0324989 29.6771 0.0921638Z" fill="#55BE88"/>
<path d="M37.3719 20.2396V7.35408C37.3644 7.22307 37.3258 7.09572 37.2594 6.98259C37.1929 6.86946 37.1004 6.77381 36.9895 6.70356L27.5743 1.27374C27.3645 1.15425 27.1973 1.25249 27.1973 1.49146V14.377C27.2037 14.508 27.2413 14.6356 27.3069 14.7491C27.3724 14.8627 27.4641 14.9591 27.5743 15.0302L36.9895 20.4573C37.2046 20.5768 37.3719 20.4812 37.3719 20.2396Z" fill="#55BE88"/>
<path opacity="0.2" d="M36.9891 20.4573C37.1069 20.515 37.2363 20.545 37.3675 20.545C37.4987 20.545 37.6281 20.515 37.7459 20.4573L39.092 19.7006C39.2023 19.6306 39.2943 19.5353 39.3603 19.4226C39.4264 19.3099 39.4646 19.1831 39.4717 19.0527V6.16982C39.4651 6.03428 39.424 5.90266 39.3522 5.78748L37.2547 6.98496C37.3232 7.09624 37.3616 7.22342 37.3662 7.35403V20.2396C37.3715 20.4599 37.2175 20.5768 36.9891 20.4573Z" fill="black"/>
<path opacity="0.4" d="M27.2029 1.42238C27.2321 1.23386 27.3861 1.15686 27.5746 1.27369L36.9898 6.70351C37.1013 6.77264 37.1928 6.86965 37.2554 6.98496L39.3556 5.78748C39.2905 5.67828 39.1993 5.58702 39.0901 5.52196L29.6775 0.0894853C29.5605 0.0306457 29.4314 0 29.3005 0C29.1695 0 29.0404 0.0306457 28.9234 0.0894853L27.5746 0.846209C27.4751 0.910146 27.3905 0.994647 27.3263 1.09403C27.2622 1.19341 27.2201 1.30537 27.2029 1.42238Z" fill="#E3E3E3"/>
<path d="M40.5076 15.7285C40.7439 15.5877 42.5149 14.5894 42.5733 14.5575C42.6166 14.5304 42.6534 14.4941 42.6811 14.4512C42.7089 14.4083 42.7269 14.3599 42.734 14.3093C42.7411 14.2587 42.737 14.2072 42.7221 14.1583C42.7072 14.1095 42.6818 14.0645 42.6476 14.0265L39.4455 10.0251L37.3718 11.2014L40.574 15.2001C40.6068 15.2381 40.6312 15.2825 40.6458 15.3306C40.6603 15.3786 40.6646 15.4292 40.6583 15.479C40.6521 15.5288 40.6354 15.5768 40.6094 15.6198C40.5835 15.6627 40.5488 15.6998 40.5076 15.7285Z" fill="#55BE88"/>
<path opacity="0.4" d="M40.5076 15.7285C40.7439 15.5877 42.5149 14.5894 42.5733 14.5575C42.6166 14.5304 42.6534 14.4941 42.6811 14.4512C42.7089 14.4083 42.7269 14.3599 42.734 14.3093C42.7411 14.2587 42.737 14.2072 42.7221 14.1583C42.7072 14.1095 42.6818 14.0645 42.6476 14.0265L39.4455 10.0251L37.3718 11.2014L40.574 15.2001C40.6068 15.2381 40.6312 15.2825 40.6458 15.3306C40.6603 15.3786 40.6646 15.4292 40.6583 15.479C40.6521 15.5288 40.6354 15.5768 40.6094 15.6198C40.5835 15.6627 40.5488 15.6998 40.5076 15.7285Z" fill="#E3E3E3"/>
<path d="M37.3718 11.204L40.574 15.1868C40.6201 15.2325 40.6521 15.2905 40.6661 15.354C40.6801 15.4174 40.6754 15.4836 40.6527 15.5444C40.63 15.6053 40.5902 15.6583 40.538 15.697C40.4859 15.7358 40.4237 15.7587 40.3589 15.763L37.3718 16.0869V11.204Z" fill="#55BE88"/>
<path d="M31.342 8.78519C31.342 8.04175 31.735 7.66471 32.2182 7.94351C32.7015 8.2223 33.0918 9.05071 33.0918 9.80212C33.0918 10.5535 32.7015 10.9226 32.2182 10.6438C31.735 10.365 31.342 9.52864 31.342 8.78519Z" fill="#FAFAFA"/>
<path d="M33.272 15.3886L31.1478 14.1619C30.9839 14.0299 30.8549 13.8596 30.7721 13.6662C30.6892 13.4727 30.655 13.2618 30.6726 13.0521L30.7735 11.905C30.8451 11.0766 31.3284 10.7023 31.8992 11.0315L32.5206 11.3899C33.0914 11.7218 33.5826 12.6511 33.6463 13.5645L33.7472 14.8284C33.803 15.2904 33.5693 15.5559 33.272 15.3886Z" fill="#FAFAFA"/>
<path d="M33.6178 8.67367C33.6178 7.85588 34.0479 7.44167 34.579 7.74967C35.11 8.05767 35.5401 8.96839 35.5401 9.78353C35.5401 10.5987 35.11 11.0155 34.579 10.7102C34.0479 10.4048 33.6178 9.49146 33.6178 8.67367Z" fill="#FAFAFA"/>
<path d="M35.6861 15.8931L34.2815 15.0806L34.1806 13.8221C34.1064 12.8976 33.763 12.0152 33.1929 11.2837C33.244 11.205 33.3107 11.1377 33.3889 11.0859C33.467 11.034 33.555 10.9988 33.6474 10.9824C33.7397 10.966 33.8345 10.9687 33.9257 10.9904C34.017 11.012 34.1029 11.0522 34.1779 11.1085L34.8656 11.5041C35.4922 11.8678 36.0206 12.8874 36.1003 13.8937L36.2118 15.2797C36.2516 15.7975 36.0047 16.0763 35.6861 15.8931Z" fill="#FAFAFA"/>
<path d="M30.9543 7.43369C30.9543 6.65572 30.5454 5.79014 30.0409 5.50072C29.5365 5.21131 29.1276 5.60162 29.1276 6.37959C29.1276 7.15755 29.5365 8.02048 30.0409 8.31255C30.5454 8.60462 30.9543 8.21165 30.9543 7.43369Z" fill="#FAFAFA"/>
<path d="M31.3578 10.3836C30.8613 10.4049 30.4896 10.8908 30.4179 11.7112L30.3223 12.7945L28.9947 12.0245C28.8208 11.8878 28.6838 11.7099 28.5962 11.5068C28.5086 11.3037 28.473 11.0819 28.4929 10.8616L28.5991 9.66939C28.6735 8.80115 29.1779 8.4135 29.7727 8.75601L30.4232 9.13305C30.8621 9.43758 31.1901 9.87648 31.3578 10.3836Z" fill="#FAFAFA"/>
<path d="M96.0484 23.7152V19.9635L92.8808 19.6979C92.8349 19.6925 92.7884 19.7018 92.7481 19.7245C92.6259 19.7909 90.0743 21.2592 90.0345 21.2831C90.0049 21.3008 89.9797 21.3248 89.9606 21.3535C89.9415 21.3822 89.9291 21.4148 89.9243 21.4489C89.9194 21.483 89.9223 21.5178 89.9326 21.5507C89.943 21.5835 89.9605 21.6137 89.984 21.6389L93.3402 25.2818L96.0484 23.7152Z" fill="#55BE88"/>
<path d="M93.3401 25.2712L89.984 21.6389C89.9522 21.6048 89.9315 21.5618 89.9245 21.5157C89.9176 21.4695 89.9249 21.4224 89.9453 21.3804C89.9657 21.3384 89.9983 21.3036 90.0389 21.2806C90.0794 21.2575 90.126 21.2473 90.1725 21.2513L93.3401 21.5168V25.2712Z" fill="#55BE88"/>
<path d="M96.0453 19.9635L93.3397 21.5194L90.1721 21.2539C90.1351 21.2508 90.0978 21.2562 90.0632 21.2698C90.3155 21.1211 92.6334 19.7883 92.7476 19.7272C92.7879 19.7044 92.8344 19.6951 92.8804 19.7006L96.0453 19.9635Z" fill="#55BE88"/>
<path opacity="0.5" d="M96.0453 19.9635L93.3397 21.5194L90.1721 21.2539C90.1351 21.2508 90.0978 21.2562 90.0632 21.2698C90.3155 21.1211 92.6334 19.7883 92.7476 19.7272C92.7879 19.7044 92.8344 19.6951 92.8804 19.7006L96.0453 19.9635Z" fill="#E3E3E3"/>
<path d="M95.783 14.9213L105.206 20.3485C105.316 20.4205 105.407 20.5171 105.472 20.6305C105.537 20.7439 105.576 20.871 105.583 21.0017V33.8872C105.577 34.0177 105.539 34.1447 105.472 34.2575C105.406 34.3702 105.314 34.4654 105.204 34.5351L103.855 35.2918C103.738 35.35 103.609 35.3803 103.478 35.3803C103.347 35.3803 103.218 35.35 103.101 35.2918L93.6775 29.8699C93.568 29.7986 93.4769 29.7026 93.4114 29.5896C93.346 29.4766 93.3079 29.3498 93.3004 29.2194V16.3286C93.3078 16.1982 93.3461 16.0715 93.4121 15.9588C93.4781 15.8462 93.57 15.7508 93.6801 15.6807L95.0289 14.9266C95.1455 14.867 95.2744 14.8354 95.4053 14.8345C95.5363 14.8336 95.6656 14.8633 95.783 14.9213Z" fill="#55BE88"/>
<path d="M103.478 35.0714V22.1832C103.47 22.053 103.433 21.9264 103.368 21.8134C103.303 21.7004 103.212 21.6043 103.103 21.5327L93.6775 16.1028C93.4703 15.9834 93.3004 16.0816 93.3004 16.3206V29.2088C93.3063 29.341 93.3435 29.4699 93.4091 29.5849C93.4747 29.6998 93.5666 29.7975 93.6775 29.8699L103.103 35.2891C103.308 35.4086 103.478 35.3103 103.478 35.0714Z" fill="#55BE88"/>
<path opacity="0.2" d="M103.103 35.2891C103.221 35.3462 103.35 35.3758 103.48 35.3758C103.611 35.3758 103.74 35.3462 103.857 35.2891L105.206 34.5324C105.316 34.4625 105.407 34.3676 105.473 34.2554C105.539 34.1433 105.578 34.0171 105.586 33.8872V21.0016C105.58 20.8647 105.538 20.7318 105.464 20.6166L103.369 21.8141C103.437 21.9254 103.476 22.0526 103.48 22.1832V35.0687C103.478 35.2891 103.321 35.4166 103.103 35.2891Z" fill="black"/>
<path opacity="0.4" d="M93.3057 16.2542C93.3349 16.063 93.4915 15.9887 93.6774 16.1029L103.103 21.5327C103.214 21.6032 103.305 21.6999 103.369 21.8141L105.466 20.6166C105.401 20.5073 105.31 20.416 105.201 20.3511L95.7829 14.9213C95.6658 14.8631 95.5367 14.8328 95.4059 14.8328C95.2751 14.8328 95.146 14.8631 95.0289 14.9213L93.68 15.678C93.5804 15.7421 93.4955 15.8266 93.431 15.9259C93.3664 16.0252 93.3237 16.1371 93.3057 16.2542Z" fill="#E3E3E3"/>
<path d="M94.5299 24.6153L94.9255 25.9429C94.9405 25.9801 94.9643 26.013 94.9948 26.0389C95.0253 26.0648 95.0617 26.0829 95.1008 26.0916L95.8814 26.2801C95.9638 26.3019 96.035 26.3541 96.0805 26.4262C96.2044 26.6784 96.3445 26.9223 96.5 27.1563C96.541 27.2171 96.5571 27.2912 96.5452 27.3634L96.2929 28.2211C96.2878 28.2574 96.2914 28.2943 96.3034 28.329C96.3154 28.3636 96.3355 28.3949 96.362 28.4202L97.2753 29.3867C97.29 29.407 97.311 29.4219 97.335 29.4291C97.359 29.4362 97.3847 29.4354 97.4081 29.4265C97.4156 29.4217 97.4219 29.4154 97.4267 29.4079L97.8542 28.7574C97.8834 28.7096 97.9604 28.7149 98.0294 28.7574C98.0984 28.7999 98.1993 28.8663 98.2816 28.9141C98.364 28.9619 98.4569 29.0123 98.5472 29.0548C98.6259 29.0914 98.6903 29.153 98.7304 29.23L99.1791 30.4381C99.1971 30.4723 99.2232 30.5016 99.2552 30.5233C99.2871 30.5451 99.3239 30.5587 99.3623 30.5629L100.193 30.6452C100.218 30.6551 100.246 30.6551 100.27 30.6452C100.284 30.6371 100.295 30.6247 100.301 30.6098C100.308 30.595 100.309 30.5785 100.305 30.5629L100.039 29.3734C100.034 29.3423 100.04 29.3101 100.056 29.2829C100.072 29.2556 100.097 29.235 100.127 29.2247C100.258 29.1738 100.38 29.1021 100.488 29.0123C100.518 28.9963 100.553 28.9907 100.586 28.9965C100.62 29.0022 100.651 29.019 100.674 29.0442L101.524 29.8195C101.548 29.8453 101.581 29.8614 101.617 29.8646H101.648C101.657 29.8586 101.665 29.8504 101.67 29.8407L102.049 29.0043C102.058 28.97 102.058 28.9341 102.049 28.8998C102.04 28.8655 102.023 28.8339 101.999 28.8079L101.202 27.8414C101.153 27.7827 101.126 27.7084 101.125 27.6316C101.145 27.4037 101.145 27.1745 101.125 26.9466C101.125 26.9309 101.128 26.9153 101.134 26.9008C101.14 26.8863 101.148 26.8731 101.16 26.8622C101.171 26.8512 101.184 26.8427 101.199 26.8371C101.214 26.8315 101.229 26.829 101.245 26.8298L101.959 26.7899C102.031 26.7899 102.076 26.7315 102.055 26.6704L101.662 25.3429C101.646 25.3062 101.622 25.2738 101.592 25.2484C101.561 25.223 101.525 25.2053 101.486 25.1968L100.706 25.0083C100.623 24.9857 100.552 24.9325 100.507 24.8596C100.383 24.6082 100.243 24.3652 100.087 24.1321C100.047 24.0712 100.031 23.9973 100.042 23.925L100.308 23.0647C100.31 23.028 100.305 22.991 100.293 22.9563C100.281 22.9215 100.261 22.8897 100.236 22.8629L99.3225 21.8991C99.2694 21.8434 99.2003 21.8327 99.1685 21.8805L98.7436 22.5284C98.7144 22.5762 98.6374 22.5709 98.5658 22.5284C98.403 22.4152 98.2316 22.3149 98.0533 22.2283C97.974 22.1927 97.9093 22.1308 97.8701 22.0531L97.4214 20.845C97.4034 20.8108 97.3773 20.7816 97.3453 20.7598C97.3134 20.738 97.2766 20.7244 97.2382 20.7202L96.4071 20.6379C96.3821 20.6294 96.3551 20.6294 96.3301 20.6379C96.315 20.6449 96.303 20.657 96.2962 20.6721C96.2894 20.6873 96.2882 20.7043 96.2929 20.7202L96.5584 21.9097C96.5636 21.9405 96.5579 21.9721 96.5425 21.9992C96.527 22.0263 96.5026 22.0472 96.4735 22.0584C96.3413 22.1087 96.2184 22.1805 96.1097 22.2708C96.0797 22.2873 96.045 22.2932 96.0112 22.2874C95.9775 22.2816 95.9467 22.2645 95.9239 22.239L95.0742 21.4637C95.0291 21.4238 94.9839 21.4106 94.9521 21.4265C94.9417 21.4316 94.9333 21.44 94.9282 21.4504L94.5511 22.2868C94.5428 22.3214 94.5428 22.3575 94.5511 22.3921C94.5595 22.4267 94.5758 22.4588 94.5989 22.4859L95.3955 23.4471C95.4448 23.5069 95.472 23.5819 95.4725 23.6595C95.4725 23.7737 95.4566 23.8931 95.4566 24.0126C95.4566 24.1321 95.4565 24.233 95.4751 24.3445C95.4751 24.3603 95.472 24.376 95.4658 24.3905C95.4596 24.405 95.4505 24.4181 95.4391 24.4291C95.4276 24.44 95.4141 24.4485 95.3993 24.454C95.3845 24.4596 95.3688 24.4621 95.353 24.4613L94.6414 24.5012C94.6247 24.4981 94.6076 24.4981 94.591 24.5012C94.5794 24.5045 94.5685 24.5101 94.5592 24.5177C94.5498 24.5253 94.542 24.5347 94.5363 24.5454C94.5306 24.556 94.5271 24.5677 94.526 24.5797C94.5249 24.5917 94.5262 24.6038 94.5299 24.6153ZM97.6577 27.0422C96.8054 26.1447 96.4018 24.7826 96.7549 24.0047C96.8069 23.8662 96.8948 23.744 97.0096 23.6507C97.1244 23.5573 97.2619 23.4962 97.4081 23.4736H97.44H97.4692H97.5063C97.7101 23.4697 97.9119 23.5133 98.0958 23.6011C98.168 23.6317 98.2381 23.6672 98.3055 23.7073C98.5382 23.8468 98.7501 24.0184 98.9348 24.2171C99.5485 24.856 99.9139 25.6931 99.965 26.5775C99.9661 26.6583 99.9617 26.739 99.9518 26.8191C99.9361 26.9693 99.8976 27.1161 99.8376 27.2546C99.7759 27.4118 99.6681 27.5467 99.5283 27.6415C99.3885 27.7363 99.2232 27.7866 99.0543 27.7856H98.9773H98.8897L98.818 27.7723H98.7835H98.7383C98.3166 27.6354 97.9421 27.3823 97.6577 27.0422Z" fill="#E3E3E3"/>
<path d="M73.3388 25.9535C71.5864 26.2987 70.4527 27.2227 70.0756 29.9681C69.6269 33.2658 68.91 38.3345 68.91 38.3345C68.91 38.3345 66.5814 44.9326 65.3946 46.4142C65.0532 46.81 64.6744 47.1719 64.2635 47.4949C63.1722 48.8623 60.6339 49.773 61.7862 50.543C62.6704 51.1325 64.0059 51.2493 65.2698 50.543C66.9771 49.5925 67.6754 48.4959 68.5224 47.0913C69.5844 45.3415 73.23 38.7939 73.23 38.7939L73.3388 25.9535Z" fill="#B16668"/>
<path d="M65.8164 45.7637C65.5907 46.1408 64.8128 46.2337 64.072 46.3824C63.3312 46.5311 62.763 46.9665 62.2479 47.0727C61.8045 47.163 61.9319 47.6914 62.7231 47.7339C63.5144 47.7764 64.4463 47.1736 64.6003 47.7339C64.7543 48.2941 66.2173 46.7674 65.8164 45.7637Z" fill="#B16668"/>
<path d="M67.3651 42.1846L66.8925 43.2838C67.6492 43.3343 69.4892 44.2529 69.8131 44.8769L70.4637 43.7458L67.3651 42.1846Z" fill="#EBEBEB"/>
<path d="M73.3385 25.9535C73.3385 25.9535 71.5569 25.8977 70.6966 27.4271C69.8363 28.9565 68.7716 38.3133 68.7716 38.3133L67.0537 42.6705C67.7786 42.62 69.9983 43.7511 70.285 44.4388L73.2801 39.532L73.3385 25.9535Z" fill="#DDDDDD"/>
<path d="M84.1242 82.8538H81.5248V87.3038H84.1242V82.8538Z" fill="#B16668"/>
<path d="M73.761 80.9394L71.1643 81.027L71.0342 76.3194L73.761 76.2291V80.9394Z" fill="#B16668"/>
<path d="M84.0284 45.238C84.0284 47.7206 83.9275 68.0034 83.9275 68.0034C83.9886 68.7177 84.6763 69.9895 84.7241 72.5624C84.8037 76.2796 84.2302 85.0788 84.2302 85.0788C83.7814 85.2996 83.2897 85.4193 82.7896 85.4294C82.2896 85.4394 81.7934 85.3397 81.3361 85.1372C81.3361 85.1372 79.2943 72.7057 78.827 69.015C78.4207 65.7917 77.2896 51.3369 77.2896 51.3369L75.3009 65.0854C75.6027 66.4405 75.7117 67.8313 75.6248 69.2168C75.5027 70.9241 73.9202 79.4791 73.9202 79.4791C73.4676 79.7351 72.9642 79.8886 72.4457 79.9285C71.9273 79.9684 71.4063 79.8938 70.9199 79.7101C70.9199 79.7101 70.7659 66.2802 70.734 64.7137C70.6995 62.9268 71.1084 44.7017 71.1084 44.7017L84.0284 45.238Z" fill="#DDDDDD"/>
<path d="M81.5246 86.0214V85.6497C81.3839 85.6497 81.2989 85.7851 81.2458 86.1197C81.206 86.3586 81.1715 86.5418 81.0918 86.8551C80.9773 87.3094 80.8255 87.7535 80.6378 88.1827C80.2714 89.0881 79.9634 89.4253 79.1217 90.4848C78.8378 90.7783 78.5718 91.0887 78.3251 91.4141C78.1685 91.6929 78.1127 92.4761 78.3782 92.6514C79.3606 93.3046 80.8502 93.3231 81.9043 93.0125C82.2977 92.9036 82.6515 92.6837 82.9232 92.379C83.1949 92.0744 83.373 91.6979 83.4363 91.2946C83.4735 91.0556 83.4602 90.8087 83.4868 90.5671C83.5791 90.0193 83.8023 89.502 84.1373 89.0589C84.3335 88.8033 84.5017 88.5273 84.6391 88.2358C84.8568 87.7048 84.6816 87.1021 84.5409 86.5684C84.4214 86.109 84.2913 85.6046 84.1346 85.647C84.1346 85.7028 84.1346 85.9311 84.1346 85.9311C83.9461 86.1409 83.4231 86.348 82.8336 86.3692C82.4433 86.3878 81.522 86.3108 81.5246 86.0214Z" fill="#263238"/>
<path d="M71.1374 80.2252C71.1374 80.2942 70.8958 80.5066 70.6064 80.7562C70.3216 81.0022 70.0237 81.2326 69.7142 81.4466C69.0814 81.9087 68.4169 82.3257 67.7255 82.6945C66.9051 83.1459 66.1643 83.4194 65.1818 83.8628C65.0815 83.9046 64.991 83.967 64.9163 84.046C64.856 84.1157 64.8148 84.1998 64.7968 84.2903C64.7678 84.4757 64.7909 84.6655 64.8636 84.8385C64.9363 85.0116 65.0557 85.161 65.2084 85.27C65.5158 85.4858 65.8649 85.635 66.2333 85.7081C67.0664 85.9429 67.9445 85.9694 68.7902 85.7851C69.4865 85.5766 70.1439 85.2555 70.7365 84.8346C71.2632 84.4626 71.862 84.2049 72.4942 84.0778C73.0465 83.9982 73.7235 84.0247 74.2015 83.6955C74.7325 83.3291 74.5201 82.5485 74.3714 81.8767C74.2068 81.1439 74.0023 79.9995 73.758 80.05V80.3155C73.4474 80.7881 71.833 80.9819 71.148 80.6341L71.1374 80.2252Z" fill="#263238"/>
<path d="M77.2946 51.3369C75.9497 50.915 74.7135 50.2035 73.673 49.2526C73.673 49.2526 74.3713 50.5616 76.4503 51.7777L75.444 64.3234L77.2946 51.3369Z" fill="#263238"/>
<path d="M79.5199 26.1951C80.404 26.4076 82.1883 26.6996 82.5866 28.4627C83.0672 30.5868 83.2238 35.1855 83.2238 35.1855L83.3884 45.4398C81.5989 46.7435 74.6529 47.4524 70.8853 44.7017C70.8853 44.7017 71.7163 32.3896 71.7163 30.4726C71.7163 28.5556 72.7784 26.2562 75.723 26.0836L79.5199 26.1951Z" fill="#F5F5F5"/>
<path d="M75.7549 25.8871C75.0741 26.7211 74.5766 27.6891 74.2945 28.7281C73.9388 30.2787 73.6016 47.8772 73.6016 47.8772C73.6016 47.8772 71.5916 47.6329 70.7313 46.9585C70.7313 46.9585 70.5561 32.5755 70.9145 30.3398C71.5544 26.3863 71.5066 25.9933 75.7549 25.6216V25.8871Z" fill="#455A64"/>
<path d="M80.2955 25.6216C80.2955 25.6216 77.8447 27.1271 77.8182 33.1251C77.7943 38.308 77.874 48.6207 77.874 48.6207C77.874 48.6207 81.9417 48.8862 84.5119 47.3382C84.5119 47.3382 83.9808 40.7906 83.941 37.1291C85.0031 31.9303 85.9324 26.8615 84.4375 26.45C82.9427 26.0384 80.2955 25.6216 80.2955 25.6216Z" fill="#455A64"/>
<path d="M80.5689 28.9087L79.4484 30.2973L80.0086 31.8798L78.535 35.6581L80.314 31.8798L79.69 30.3876L80.5689 28.9087Z" fill="#DDDDDD"/>
<path d="M72.6565 28.4626L72.9007 29.8991L71.929 31.163L73.2804 35.4192L72.2343 31.2107L73.1317 30.0292L72.6565 28.4626Z" fill="#DDDDDD"/>
<path d="M78.8876 17.2127C78.8881 17.9196 78.679 18.6109 78.2866 19.1989C77.8942 19.787 77.3362 20.2455 76.6832 20.5164C76.0302 20.7873 75.3116 20.8584 74.6181 20.7208C73.9247 20.5833 73.2876 20.2431 72.7876 19.7434C72.2875 19.2437 71.9468 18.6069 71.8087 17.9135C71.6706 17.2202 71.7412 16.5015 72.0117 15.8483C72.2821 15.1951 72.7401 14.6368 73.3279 14.244C73.9157 13.8512 74.6068 13.6415 75.3137 13.6415C76.2611 13.6415 77.1697 14.0176 77.8399 14.6873C78.51 15.357 78.8869 16.2653 78.8876 17.2127Z" fill="#263238"/>
<path d="M81.4898 19.7537C81.4898 19.7537 80.9109 22.4726 80.6773 22.9186C80.5233 23.1953 80.2684 23.4018 79.9657 23.4948L80.0082 21.5804L81.4898 19.7537Z" fill="#263238"/>
<path d="M80.7624 15.8559C80.9632 15.8342 81.1663 15.858 81.3566 15.9255C81.5469 15.9931 81.7196 16.1027 81.8617 16.2462C82.3396 16.7348 82.0714 18.2588 81.4793 19.7537L80.3881 19.8785L80.7624 15.8559Z" fill="#263238"/>
<path d="M80.0719 19.8785C80.2896 20.0086 80.603 19.589 80.8685 19.3076C81.134 19.0261 82.0182 18.6411 82.4616 19.5731C82.905 20.5051 82.0739 21.761 81.3809 21.9787C80.1861 22.3531 80.0082 21.5884 80.0082 21.5884L79.9179 26.4659C79.0922 27.528 77.2388 28.7706 76.2405 28.5901C75.444 28.4467 75.2687 27.1005 76.0308 26.219V24.4692C75.501 24.5568 74.9633 24.5871 74.427 24.5595C73.5482 24.4241 72.9932 23.7311 72.7304 22.7806C72.3268 21.3282 72.1993 19.6979 72.502 17.0162C72.8764 13.7211 76.7291 13.6919 78.7948 14.9929C80.8605 16.294 80.0719 19.8785 80.0719 19.8785Z" fill="#B16668"/>
<path d="M80.0726 20.2475C80.1814 20.2475 80.6036 19.5545 80.8691 19.3076C81.2461 18.9651 80.7602 15.8559 80.7602 15.8559C80.8899 15.5824 80.9339 15.2761 80.8865 14.9771C80.8391 14.6782 80.7026 14.4005 80.4947 14.1805C79.9796 13.6096 79.2574 12.9166 76.9156 13.1927C75.2428 13.3919 73.424 13.9123 71.9557 13.1927C71.8202 13.6717 71.8306 14.1803 71.9858 14.6533C72.1409 15.1263 72.4337 15.5423 72.8266 15.8479C72.8266 15.8479 73.3576 16.1904 74.7569 16.3604C76.0485 16.4579 77.3465 16.433 78.6335 16.286C79.0397 16.2329 79.1247 16.6259 79.345 17.6986C79.5442 18.6412 79.7035 20.2396 80.0726 20.2475Z" fill="#263238"/>
<path d="M80.7603 16.0975L82.0878 15.3886C82.0456 15.2996 81.9857 15.2201 81.9118 15.1549C81.8379 15.0897 81.7515 15.0402 81.6579 15.0094C81.5643 14.9787 81.4654 14.9672 81.3672 14.9758C81.2691 14.9844 81.1737 15.0128 81.0868 15.0594C80.9109 15.1587 80.7792 15.3212 80.7186 15.514C80.658 15.7067 80.6728 15.9153 80.7603 16.0975Z" fill="#263238"/>
<path d="M76.0338 24.4639C76.0338 24.4639 77.996 24.0683 78.689 23.7045C79.0912 23.4944 79.4207 23.1677 79.6342 22.7673C79.5331 23.1674 79.3525 23.543 79.1032 23.8718C78.6014 24.5117 76.0471 25.0242 76.0471 25.0242L76.0338 24.4639Z" fill="#9A4A4D"/>
<path d="M75.8477 19.2784C75.8514 19.3552 75.8775 19.4293 75.9228 19.4914C75.9681 19.5535 76.0307 19.601 76.1028 19.6279C76.1748 19.6548 76.2532 19.66 76.3281 19.6428C76.4031 19.6256 76.4714 19.5868 76.5245 19.5312C76.5776 19.4755 76.6132 19.4055 76.6269 19.3299C76.6406 19.2542 76.6319 19.1762 76.6016 19.1054C76.5714 19.0347 76.5211 18.9744 76.457 18.932C76.3928 18.8896 76.3176 18.8669 76.2407 18.8668C76.1341 18.8696 76.033 18.9145 75.9593 18.9916C75.8857 19.0687 75.8456 19.1718 75.8477 19.2784Z" fill="#263238"/>
<path d="M76.1851 18.1261L77.0241 18.5907C77.0836 18.4742 77.0953 18.3391 77.0566 18.2141C77.0179 18.0891 76.9319 17.9841 76.817 17.9216C76.7622 17.8929 76.7022 17.8754 76.6406 17.8701C76.579 17.8648 76.5169 17.8719 76.458 17.891C76.3992 17.91 76.3447 17.9406 76.2978 17.981C76.251 18.0214 76.2126 18.0707 76.1851 18.1261Z" fill="#263238"/>
<path d="M76.2117 22.1035L75.3142 22.4354C75.3339 22.4956 75.3655 22.5513 75.4071 22.5991C75.4487 22.6469 75.4996 22.6858 75.5565 22.7135C75.6135 22.7413 75.6755 22.7573 75.7388 22.7606C75.802 22.7639 75.8653 22.7544 75.9249 22.7328C76.0439 22.6842 76.1398 22.592 76.1931 22.475C76.2464 22.3581 76.253 22.2252 76.2117 22.1035Z" fill="#9A4A4D"/>
<path d="M72.6505 18.4181L73.532 18.0198C73.5102 17.9602 73.4764 17.9056 73.4326 17.8595C73.3888 17.8134 73.3361 17.7768 73.2776 17.7519C73.2191 17.727 73.1561 17.7144 73.0926 17.7148C73.029 17.7152 72.9662 17.7287 72.9081 17.7543C72.7866 17.809 72.6914 17.9092 72.6432 18.0334C72.595 18.1576 72.5977 18.2958 72.6505 18.4181Z" fill="#263238"/>
<path d="M72.8342 19.2784C72.8378 19.3552 72.8639 19.4293 72.9093 19.4914C72.9546 19.5535 73.0172 19.601 73.0892 19.6279C73.1613 19.6548 73.2396 19.66 73.3146 19.6428C73.3895 19.6256 73.4578 19.5868 73.5109 19.5312C73.564 19.4755 73.5997 19.4055 73.6134 19.3299C73.6271 19.2542 73.6183 19.1762 73.5881 19.1054C73.5579 19.0347 73.5076 18.9744 73.4434 18.932C73.3793 18.8896 73.3041 18.8669 73.2272 18.8668C73.1206 18.8696 73.0194 18.9145 72.9458 18.9916C72.8722 19.0687 72.832 19.1718 72.8342 19.2784Z" fill="#263238"/>
<path d="M74.7007 19.066L74.5733 21.4291L73.3386 21.0069L74.7007 19.066Z" fill="#9A4A4D"/>
<path d="M74.8124 28.3139C75.054 28.8848 75.4974 29.1105 76.3046 29.2087C76.7095 29.2374 77.116 29.1834 77.4994 29.0502C77.8828 28.9169 78.2351 28.7071 78.5349 28.4334L77.7729 27.6741L76.2594 28.3936L75.8479 27.4271L74.8124 28.3139Z" fill="#DDDDDD"/>
<path d="M75.4444 28.0112C75.3285 28.3526 75.2834 28.7139 75.3117 29.0733C75.3496 29.3981 75.4734 29.7069 75.6701 29.9681C75.7973 30.0496 75.9417 30.1005 76.092 30.1166C76.2422 30.1327 76.3941 30.1137 76.5357 30.061C76.7944 29.8394 77.0021 29.5646 77.1446 29.2552C77.2871 28.9459 77.3611 28.6094 77.3615 28.2688L76.2596 28.3936L75.4444 28.0112Z" fill="#455A64"/>
<path d="M75.6698 29.9681C74.8122 33.3296 74.2944 39.0488 74.398 39.625C74.5016 40.2012 75.1467 42.2802 75.6433 42.2802C76.1398 42.2802 77.0133 40.2224 76.947 39.6967C76.8222 38.6957 76.3283 29.9628 76.5354 30.0531L75.6698 29.9681Z" fill="#455A64"/>
<path d="M76.5354 30.0611C76.3957 30.1229 76.2421 30.1468 76.0902 30.1305C75.9382 30.1142 75.7933 30.0582 75.6698 29.9681L75.6406 30.0797C75.7482 30.192 75.8849 30.2721 76.0354 30.3111C76.186 30.35 76.3444 30.3462 76.4929 30.3L76.5354 30.0611Z" fill="#DDDDDD"/>
<path d="M76.2592 28.3936C77.8151 27.6103 79.6949 26.4659 79.9445 25.2074L79.9578 24.5064C79.9578 24.5064 80.5685 24.7002 80.7278 25.7278C80.5951 27.2678 79.525 28.8503 78.1337 29.6442L77.361 28.2767L76.2592 28.3936Z" fill="#E0E0E0"/>
<path d="M76.0363 24.9472C75.7855 25.0502 75.5684 25.2213 75.4097 25.4411C74.4777 26.6837 74.5653 28.8078 74.5653 28.8078L75.4442 28.0113L76.2593 28.4042C75.9552 27.7199 75.8752 26.9569 76.031 26.2243L76.0363 24.9472Z" fill="#E0E0E0"/>
<path d="M84.4347 26.4606C85.6508 26.7739 86.4553 26.8722 87.289 28.4626C88.0139 29.846 91.3594 35.6316 92.0683 37.0202C92.4241 37.7079 92.7773 38.4939 91.8373 39.4471C91.0833 40.2064 86.1208 44.8663 85.3109 45.6628C84.7286 46.2802 83.9373 46.6588 83.0912 46.7249C81.83 46.8364 81.214 46.3903 80.991 46.1169C79.6634 44.4733 82.2124 44.2237 83.0912 43.6794C83.4981 43.4305 83.8621 43.1176 84.1692 42.7528L84.1161 41.8819C84.1161 41.8819 85.0454 41.8819 85.3428 41.6455C85.6402 41.4092 88.2874 37.9681 88.2874 37.9681C88.2874 37.9681 84.5011 32.9844 84.0152 31.9409C83.5293 30.8974 82.977 27.2625 84.4347 26.4606Z" fill="#B16668"/>
<path d="M86.0224 40.6419L85.4144 41.4756C85.3903 42.0071 85.5666 42.5282 85.9083 42.936C86.2613 43.3893 86.7161 43.7532 87.2358 43.998L88.0324 43.2307L86.0224 40.6419Z" fill="#EBEBEB"/>
<path d="M85.6715 40.9605C85.6715 40.9605 85.868 43.1431 87.7505 43.7458C87.7505 43.7458 92.2271 39.4736 92.6466 38.8948C93.0661 38.316 92.7741 37.7079 91.874 36.1281C90.9739 34.5483 87.4372 28.0989 86.8504 27.4271C86.2636 26.7554 85.3157 26.6306 83.9536 26.3385C83.2877 27.5591 83.0868 28.9798 83.3881 30.3372C83.9191 32.5197 84.405 33.0986 84.405 33.0986L87.8806 38.0239L85.6715 40.9605Z" fill="#DDDDDD"/>
<path d="M50.1354 68.8238C50.1515 69.0984 50.0819 69.3712 49.9363 69.6045C49.571 70.2119 49.1401 70.7773 48.6512 71.2905C47.9635 72.0313 46.9333 72.9048 46.1952 73.5474C45.7863 73.9058 45.7703 74.4475 46.3571 74.636C47.4503 74.9046 48.6048 74.7441 49.5832 74.1873C50.316 73.7943 51.3595 71.9755 51.9728 71.6994C52.6711 71.3834 53.0641 71.2241 53.3004 70.9028C53.6535 70.4196 53.7438 70.0585 53.4411 69.4956C53.1119 68.8823 52.6154 67.9344 52.4109 68.0379L52.4747 68.2344C52.3153 68.7362 50.9479 69.3204 50.247 69.1796L50.1354 68.8238Z" fill="#DDDDDD"/>
<path d="M55.4881 72.2224V71.8852C55.4218 72.3977 54.742 73.9722 53.8127 74.8219C53.0719 75.4963 52.063 76.2742 51.8054 77.0256C51.5479 77.7771 52.9976 78.1196 53.9535 78.024C54.8827 77.9099 55.7387 77.4616 56.3617 76.7628C56.9697 76.0671 56.9591 75.5892 57.2432 75.2069C57.5273 74.8245 58.1805 74.3917 58.3345 73.9483C58.4195 73.704 58.3186 73.1703 58.1991 72.719C58.0796 72.2676 57.9734 71.8481 57.8327 71.8852V72.1508C57.4982 72.4129 57.084 72.5525 56.6591 72.5464C56.3166 72.5517 55.4855 72.4827 55.4881 72.2224Z" fill="#DDDDDD"/>
<path d="M59.3331 47.6595C59.6756 44.3007 60.3633 38.9718 59.5986 35.2094C55.7167 34.6226 51.872 34.0969 47.9477 33.6163C47.0025 38.4912 46.5511 51.475 47.0476 53.2938C48.423 58.8697 49.1266 63.033 49.947 68.5929C50.023 68.9647 49.9587 69.3516 49.7665 69.6788C49.4554 70.2207 49.083 70.725 48.6566 71.1817C48.3274 71.5322 48.0167 71.9225 47.6609 72.265C47.6255 72.2991 47.5979 72.3405 47.58 72.3864C47.5621 72.4322 47.5544 72.4814 47.5574 72.5305C47.6238 73.0615 48.3911 72.9766 48.9275 72.796C49.6066 72.5416 50.1946 72.0905 50.6162 71.5003C50.9746 71.0436 51.6782 70.2178 52.0499 69.7293C52.1981 69.5422 52.3279 69.3412 52.4376 69.1292C52.5628 68.8507 52.5881 68.5375 52.5093 68.2424C52.4946 68.1651 52.484 68.0871 52.4774 68.0088C52.4562 67.2467 53.2156 58.952 52.9899 57.0588C52.7429 55.0037 52.4588 54.4196 51.7711 52.7017C52.2544 49.1624 52.7111 45.4079 53.1837 41.8155C53.266 45.6974 53.2819 50.1262 53.7811 53.8514C54.1794 56.8331 54.3732 58.8962 54.6892 61.8169C54.9919 64.6181 55.3583 69.7824 55.3928 70.5497C55.4223 71.0342 55.408 71.5202 55.3503 72.0021C55.1177 73.076 54.5856 74.062 53.8156 74.8458C53.6377 75.0078 53.4439 75.175 53.2501 75.345C52.8571 75.7831 52.9686 76.1654 53.8926 76.2451C54.8166 76.3247 55.6318 75.7672 56.3327 74.9175C56.646 74.5352 57.8329 72.5756 57.8329 72.1774C57.8329 72.0605 57.8329 71.9517 57.8329 71.8561C57.8402 71.1264 57.905 70.3984 58.0267 69.6788C58.4144 67.3848 59.2481 63.248 59.3862 61.4133C59.6066 58.4926 59.3862 57.0827 58.6454 54.7754C58.9268 51.9078 58.9985 50.9227 59.3331 47.6595Z" fill="#FFA8A7"/>
<path d="M48.4728 31.5585C47.8102 34.0568 47.3616 36.6071 47.132 39.1815C46.7948 43.2599 46.4416 51.5546 46.6009 52.3724C46.7602 53.1902 49.1526 63.4498 49.1526 63.4498C49.7857 63.759 50.5003 63.8603 51.1944 63.7392C51.7761 63.6137 52.3256 63.3697 52.8087 63.0223C52.8087 63.0223 53.3238 58.3572 53.1327 56.5384C52.9415 54.7196 52.0308 52.5556 52.0308 52.5556L53.1858 41.7995C53.1858 41.7995 53.0424 48.1985 53.3982 51.9396C53.754 55.6807 54.9382 64.3977 54.9382 64.3977C55.1679 64.6508 55.4495 64.8514 55.7639 64.9857C56.0782 65.12 56.4179 65.1848 56.7596 65.1756C57.5159 65.1657 58.2591 64.9774 58.9289 64.626C58.9289 64.626 59.3484 62.6824 59.5236 61.1477C59.7709 59.0507 59.5533 56.9249 58.8864 54.9214C58.8864 54.9214 59.7706 44.7202 60.0812 42.4925C60.3919 40.2648 61.1938 36.2688 58.6474 32.5702C58.4005 32.4666 48.4728 31.5585 48.4728 31.5585Z" fill="#DDDDDD"/>
<path d="M53.1857 41.7995V41.3189C53.1857 41.3189 50.7961 40.5702 49.6464 39.0912C49.6464 39.0912 50.196 40.4958 52.567 41.7995C52.567 41.7995 52.5166 48.0976 52.5219 48.0312C52.5272 47.9648 53.1857 41.7995 53.1857 41.7995Z" fill="#263238"/>
<path d="M47.1508 21.2114C46.2985 23.7205 44.8753 30.9293 44.8753 30.9293C44.8753 30.9293 42.2201 34.8032 41.3121 35.9157C40.858 36.4759 39.8756 37.5885 39.8756 37.5885L42.098 39.3356C43.707 37.4769 46.1338 35.0103 47.1428 33.7305C47.6207 33.1172 48.019 32.5914 48.1465 32.0524L49.1581 25.6402C49.1581 25.6402 49.1581 20.5157 49.9546 19.8413C50.7512 19.1669 50.9636 19.0288 50.9636 19.0288C49.9361 18.9571 47.8199 19.2492 47.1508 21.2114Z" fill="#FFA8A7"/>
<path d="M51.407 18.9571C50.021 18.7978 48.2474 18.8243 47.3818 20.375C46.5162 21.9256 45.0745 29.9123 45.0745 29.9123C45.0745 29.9123 46.4366 30.9744 47.9102 30.9558L51.407 18.9571Z" fill="#455A64"/>
<path d="M47.5544 26.4182C47.805 27.6117 47.9022 28.8323 47.8438 30.0504C47.7323 31.6435 46.5933 34.5908 46.5933 34.5908C46.5933 34.5908 47.4907 35.4059 49.9335 35.0236C51.9195 34.7129 51.2186 28.7175 50.0768 27.5572C49.411 26.8713 48.5093 26.4641 47.5544 26.4182Z" fill="#DDDDDD"/>
<path d="M54.9571 19.0713C54.9571 19.0713 58.2761 19.4536 58.6744 19.6315C55.5625 21.8194 58.0823 26.6916 58.0823 26.6916L56.8901 30.4275C57.6548 31.4099 58.3611 32.1586 58.9558 32.9791C59.4193 33.5973 59.7938 34.2774 60.0683 34.9997C60.8649 37.0787 51.9833 40.3817 47.135 36.5529C47.3288 35.3501 47.6368 34.0996 47.913 32.9791C48.2927 31.4258 48.6166 30.1168 48.5077 29.5088C47.1138 25.2154 47.0288 24.4427 47.2757 23.4842C47.9714 20.7892 50.7275 18.9704 51.3966 18.9704L54.9571 19.0713Z" fill="#55BE88"/>
<path d="M54.9572 19.0713C54.9572 19.0713 58.0638 19.3368 58.6744 19.6315C59.2851 19.9263 60.2967 21.6707 59.3887 24.217C58.4806 26.7633 57.6602 29.753 57.7531 30.3558C57.846 30.9585 60.01 34.073 60.01 34.073C59.3807 34.4792 58.7143 34.9014 58.0186 35.0289L56.9034 32.5994L57.169 35.1722C57.169 35.1722 55.1749 35.6555 53.7491 35.5333C53.7464 35.5333 52.6923 25.6614 54.9572 19.0713Z" fill="#455A64"/>
<path d="M47.0791 18.1446H52.2195C53.0236 18.1446 53.8198 17.9863 54.5626 17.6786C55.3055 17.3709 55.9804 16.9199 56.549 16.3513C57.1176 15.7827 57.5686 15.1078 57.8763 14.3649C58.184 13.6221 58.3423 12.8259 58.3423 12.0218C58.3416 10.5284 57.7481 9.09642 56.6921 8.04044C55.6361 6.98446 54.2041 6.3909 52.7107 6.3902C51.9712 6.3902 51.2388 6.53586 50.5556 6.81888C49.8723 7.10189 49.2515 7.51672 48.7286 8.03966C48.2056 8.5626 47.7908 9.18343 47.5078 9.86669C47.2248 10.5499 47.0791 11.2823 47.0791 12.0218V18.1446Z" fill="#263238"/>
<path d="M49.2322 8.93384C48.6348 9.28432 47.9046 10.7925 47.9737 13.9176C48.0347 16.5728 48.8977 17.2312 49.3305 17.4224C49.7633 17.6136 50.597 17.4968 51.4068 17.3613V18.9544C51.4068 18.9544 50.2863 20.2555 50.3447 20.9883C50.4031 21.7211 51.9617 21.8911 52.9999 21.1768C54.0381 20.4626 54.9329 19.0686 54.9329 19.0686L54.9169 15.4018C54.9169 15.4018 55.3922 15.8638 56.202 15.1576C56.8711 14.5734 57.0968 13.5883 56.5764 13.0573C56.4413 12.9307 56.2779 12.838 56.0998 12.7871C55.9217 12.7362 55.734 12.7284 55.5523 12.7645C55.3706 12.8006 55.2002 12.8795 55.055 12.9946C54.9099 13.1097 54.7943 13.2577 54.7178 13.4264C54.7178 13.4264 54.2664 12.1758 52.3972 11.5678C50.7377 11.0181 49.8217 10.3809 49.2322 8.93384Z" fill="#FFA8A7"/>
<path d="M51.014 13.1423C51.0136 13.2079 51.0324 13.2721 51.0682 13.3271C51.104 13.3821 51.1552 13.4253 51.2153 13.4514C51.2755 13.4776 51.342 13.4854 51.4066 13.4741C51.4712 13.4627 51.531 13.4326 51.5786 13.3875C51.6262 13.3424 51.6596 13.2843 51.6744 13.2204C51.6893 13.1565 51.6851 13.0897 51.6622 13.0282C51.6394 12.9667 51.5991 12.9133 51.5461 12.8746C51.4932 12.8358 51.43 12.8135 51.3645 12.8104C51.2741 12.8083 51.1865 12.8419 51.1209 12.9041C51.0552 12.9663 51.0168 13.0519 51.014 13.1423Z" fill="#263238"/>
<path d="M50.8523 15.5027L50.077 15.7497C50.0907 15.8018 50.1148 15.8506 50.1479 15.8931C50.181 15.9356 50.2224 15.971 50.2696 15.9971C50.3168 16.0231 50.3687 16.0393 50.4223 16.0447C50.4759 16.0501 50.5301 16.0446 50.5815 16.0285C50.6861 15.9932 50.7729 15.9186 50.8234 15.8205C50.874 15.7223 50.8843 15.6084 50.8523 15.5027Z" fill="#F28F8F"/>
<path d="M48.3085 12.3458L48.9856 11.8758C48.9574 11.8303 48.9202 11.791 48.8762 11.7604C48.8323 11.7298 48.7826 11.7085 48.7301 11.6979C48.6777 11.6872 48.6236 11.6873 48.5712 11.6983C48.5188 11.7092 48.4692 11.7308 48.4254 11.7616C48.3348 11.8255 48.2722 11.9217 48.2505 12.0304C48.2287 12.1391 48.2495 12.252 48.3085 12.3458Z" fill="#263238"/>
<path d="M51.9143 12.4706L51.2372 12.0006C51.2659 11.9553 51.3035 11.9163 51.3477 11.8859C51.3919 11.8555 51.4417 11.8343 51.4943 11.8236C51.5469 11.813 51.6011 11.813 51.6536 11.8238C51.7061 11.8346 51.756 11.8559 51.8001 11.8864C51.8902 11.9507 51.9523 12.0471 51.9735 12.1557C51.9948 12.2644 51.9735 12.3771 51.9143 12.4706Z" fill="#263238"/>
<path d="M48.4865 13.068C48.486 13.1334 48.5048 13.1976 48.5405 13.2525C48.5762 13.3073 48.6272 13.3506 48.6872 13.3767C48.7472 13.4029 48.8136 13.4109 48.8781 13.3997C48.9426 13.3886 49.0024 13.3587 49.0501 13.3139C49.0978 13.269 49.1313 13.2112 49.1465 13.1475C49.1616 13.0838 49.1578 13.0171 49.1353 12.9556C49.1129 12.8941 49.073 12.8405 49.0204 12.8015C48.9678 12.7624 48.905 12.7397 48.8396 12.7361C48.7489 12.7339 48.6611 12.7675 48.595 12.8296C48.5289 12.8917 48.4899 12.9773 48.4865 13.068Z" fill="#263238"/>
<path d="M50.0981 12.8157L50.045 14.8284L48.9856 14.4991L50.0981 12.8157Z" fill="#F28F8F"/>
<path d="M51.407 17.3613C52.2619 17.2472 54.0223 16.7427 54.2958 16.0338C54.1856 16.3852 53.9707 16.6946 53.6798 16.9206C53.1488 17.372 51.407 17.8791 51.407 17.8791V17.3613Z" fill="#F28F8F"/>
<path d="M62.875 31.1974C63.1193 29.7318 62.875 29.2538 62.3572 27.8174L59.4764 29.5008C59.4764 29.5008 59.8985 30.5814 59.864 31.1974C59.8401 31.6169 59.2666 35.8148 58.7249 37.2778C58.6271 37.5359 58.4382 37.7493 58.1939 37.8778C57.5381 38.2283 57.2566 38.6133 56.7522 39.0753C56.3539 39.4364 56.0326 39.5107 56.0724 39.6382C56.1346 39.779 56.2476 39.8912 56.3889 39.9522C56.5302 40.0132 56.6893 40.0187 56.8345 39.9674C57.1578 39.8642 57.4679 39.7234 57.7585 39.5479C57.5013 40.1002 57.157 40.6077 56.7389 41.0507C55.7857 42.0677 55.7007 42.7288 57.477 42.8669C58.5869 42.9518 59.5242 42.3358 60.5278 39.9462C60.8404 39.0675 61.0976 38.1701 61.2978 37.2592C61.8342 35.1536 62.628 32.6684 62.875 31.1974Z" fill="#FFA8A7"/>
<path d="M58.6719 19.6315C59.9224 20.1944 60.3446 21.2751 60.9898 22.9717C61.5926 24.5648 62.9281 29.4318 62.9281 29.4318C62.9281 29.4318 61.4147 30.9266 59.6782 30.4938L57.4638 25.0906C57.4638 25.0906 56.4229 21.5592 58.6719 19.6315Z" fill="#DDDDDD"/>
<path d="M13.8075 91.353C13.619 91.4247 13.5101 91.7831 13.4252 92.6567C13.3721 93.1877 13.1888 93.9126 14.0146 94.3507C14.3164 94.5064 14.6517 94.5861 14.9914 94.5828C15.331 94.5796 15.6647 94.4935 15.9635 94.3321C16.6777 93.8887 16.9008 92.877 17.7398 92.2079C18.4753 91.6318 19.6568 91.0556 20.0684 90.1661C20.4082 89.4333 20.4082 88.3845 19.1895 88.4402C17.7053 88.5093 16.8636 89.6802 15.8573 89.7041C15.2944 89.7253 13.9987 91.2839 13.8075 91.353Z" fill="#263238"/>
<path d="M13.8102 90.9228V91.8044C13.8102 92.2345 15.6422 92.8664 16.1547 91.892C16.1945 91.807 16.3937 90.6016 16.3937 90.6016L13.8102 90.9228Z" fill="#FFBDA7"/>
<path d="M22.2984 96.4828C22.2984 96.4828 21.9506 96.4828 21.8151 97.9033C21.762 98.4343 21.6319 99.5548 21.8151 99.9584C21.9983 100.362 23.002 100.537 24.1251 100.638C24.9642 100.712 25.7182 101.119 26.4962 101.557C27.2316 101.972 28.0577 102.2 28.9018 102.221C29.9639 102.221 30.864 102.114 31.6207 101.514C32.0243 101.196 32.5341 100.524 32.1517 100.019C31.9962 99.8654 31.7985 99.7609 31.5835 99.7194C31.1109 99.5442 30.6356 99.3822 30.1524 99.2309C29.4322 99.0191 28.7292 98.7528 28.0495 98.4343C27.0591 97.9458 25.9545 97.3988 25.2058 96.5624L22.2984 96.4828Z" fill="#263238"/>
<path d="M22.3042 95.7473C22.3042 95.7473 22.3042 96.4004 22.3042 96.7748C22.3042 97.1492 22.7396 97.7068 23.8814 97.6723C24.6779 97.6484 25.2435 97.4359 25.209 96.7748V95.8216L22.3042 95.7473Z" fill="#FFBDA7"/>
<path d="M13.2978 79.2295C13.5002 77.6706 13.8559 76.1356 14.3599 74.6467C14.3599 74.6467 14.0652 70.6851 13.9351 66.9307C13.8174 63.084 13.9246 59.2336 14.2564 55.3993C14.2564 55.3993 27.0012 54.1886 27.2216 58.8776C27.4419 63.5666 27.1286 75.491 26.956 77.5488C26.7835 79.6065 26.6268 81.5315 26.1914 85.3656C25.817 88.6633 25.2116 95.8216 25.2116 95.8216C24.7565 96.0513 24.2515 96.1647 23.7419 96.1517C23.2323 96.1388 22.7338 95.9998 22.2909 95.7473C22.2909 95.7473 21.3297 86.1356 21.2288 83.7619C21.0855 80.6819 21.805 78.9825 21.805 78.9825C21.805 78.9825 21.5395 77.0469 21.0563 73.0642C20.7217 70.2497 20.2756 67.0449 20.2756 67.0449C20.2756 67.0449 19.8402 71.0117 19.5747 73.2235C19.3304 75.2733 18.9135 76.8929 18.2975 80.7137C17.7665 84.03 16.3088 91.045 16.3088 91.045C14.8086 91.8415 13.805 90.9228 13.805 90.9228C13.805 90.9228 12.8783 82.105 13.2978 79.2295Z" fill="#DDDDDD"/>
<path d="M20.2807 67.0423L19.678 63.1285C19.678 63.1285 17.1954 62.332 15.9315 60.861C15.9315 60.861 16.6059 62.5816 18.9186 63.5162L19.8452 66.8139L20.0045 69.5355L20.2807 67.0423Z" fill="#263238"/>
<path d="M16.8794 39.694C14.8907 39.2134 13.6321 40.1772 12.8966 42.8802C12.2674 45.2008 11.346 50.0014 10.9876 51.7936C10.8548 52.4574 10.5946 53.2194 11.9912 54.0558C14.0165 55.2278 16.1068 56.2836 18.2521 57.2181L19.0168 54.3585L15.9315 48.0312L16.8794 39.694Z" fill="#55BE88"/>
<path opacity="0.25" d="M16.8794 39.694C14.8907 39.2134 13.6321 40.1772 12.8966 42.8802C12.2674 45.2008 11.346 50.0014 10.9876 51.7936C10.8548 52.4574 10.5946 53.2194 11.9912 54.0558C14.0165 55.2278 16.1068 56.2836 18.2521 57.2181L19.0168 54.3585L15.9315 48.0312L16.8794 39.694Z" fill="black"/>
<path d="M22.3756 38.4222L21.7809 42.6094L18.0132 42.4793L18.3769 37.5884L22.3756 38.4222Z" fill="#FFBDA7"/>
<path d="M25.0786 33.2552C25.0786 33.2552 26.0902 34.7368 25.9787 34.8855C25.8672 35.0342 25.145 35.1775 25.145 35.1775L25.0786 33.2552Z" fill="#F0997A"/>
<path d="M23.4984 33.0109C23.4948 32.7678 23.5633 32.5291 23.6953 32.3249C23.8273 32.1208 24.0169 31.9603 24.2401 31.8639C24.4633 31.7675 24.7101 31.7394 24.9492 31.7833C25.1884 31.8271 25.4092 31.9408 25.5837 32.1101C25.7582 32.2794 25.8785 32.4967 25.9296 32.7344C25.9806 32.9721 25.96 33.2196 25.8704 33.4456C25.7808 33.6716 25.6262 33.866 25.4261 34.0041C25.226 34.1423 24.9895 34.218 24.7464 34.2217C24.5849 34.2241 24.4246 34.1948 24.2745 34.1352C24.1244 34.0757 23.9875 33.9872 23.8716 33.8748C23.7557 33.7624 23.6631 33.6282 23.5991 33.48C23.5351 33.3317 23.5009 33.1724 23.4984 33.0109ZM23.7639 33.0109C23.7671 33.1999 23.8263 33.3838 23.9339 33.5391C24.0416 33.6945 24.1929 33.8145 24.3687 33.8839C24.5445 33.9534 24.737 33.9691 24.9218 33.9291C25.1065 33.8891 25.2753 33.7953 25.4067 33.6594C25.5382 33.5235 25.6263 33.3517 25.6601 33.1657C25.6939 32.9797 25.6718 32.7879 25.5966 32.6144C25.5213 32.441 25.3964 32.2938 25.2375 32.1914C25.0786 32.089 24.8929 32.036 24.7039 32.0391C24.4522 32.0454 24.2132 32.1507 24.0387 32.3321C23.8642 32.5136 23.7683 32.7565 23.7719 33.0083L23.7639 33.0109Z" fill="#263238"/>
<path d="M22.2749 29.1556C24.2769 29.5459 24.869 30.4141 25.1053 33.5844C25.3549 36.8954 25.0336 37.9416 24.6061 38.3956C24.3167 38.7009 22.6838 38.7806 21.8553 38.5682C20.8198 38.3027 18.4753 37.5061 17.3575 35.8599C16.0299 33.919 15.6635 31.2665 17.0203 30.1539C18.9347 28.5874 21.4597 28.9989 22.2749 29.1556Z" fill="#FFBDA7"/>
<path d="M22.3439 38.6531C23.2068 38.7461 24.3645 38.6531 24.6061 38.3876C23.6423 38.4487 22.4607 37.9655 22.4607 37.9655L22.3439 38.6531Z" fill="#F0997A"/>
<path d="M25.4156 29.9548L25.3545 30.0186C24.9589 30.4062 24.4491 30.6558 24.027 31.0222C23.5768 31.4302 23.2556 31.9609 23.103 32.5489C22.9729 33.0322 22.9277 33.611 22.4073 33.834C22.4073 33.834 22.0568 32.5569 20.9788 32.7348C19.9008 32.9127 19.7707 34.304 20.469 35.1244C21.1673 35.9449 21.7966 35.621 21.7966 35.621C21.7966 35.621 21.7966 37.4557 21.0001 38.5045C21.0001 38.5045 20.0814 38.8178 18.3768 38.4832C17.3147 38.2761 15.8304 36.9963 15.1906 35.6236C13.8311 32.7189 13.6983 30.0902 15.5517 29.2698C15.7322 27.921 16.7837 27.2997 17.9891 27.0023C19.792 26.5589 21.5019 27.605 23.2835 27.1775C23.6579 27.0873 24.019 26.9465 24.3987 26.8934C24.4412 26.8814 24.4863 26.8814 24.5288 26.8934C24.6217 26.9386 24.6164 27.0687 24.5925 27.1589C24.5014 27.519 24.3257 27.8521 24.0801 28.1307C24.7664 28.1606 25.4523 28.0634 26.1033 27.844C26.1513 28.2248 26.1145 28.6114 25.9956 28.9763C25.8767 29.3412 25.6787 29.6754 25.4156 29.9548Z" fill="#263238"/>
<path d="M15.8225 29.9336L14.6171 29.2486C14.662 29.1694 14.7222 29.0999 14.794 29.044C14.8659 28.9881 14.948 28.9469 15.0358 28.9227C15.1236 28.8985 15.2152 28.8919 15.3056 28.9032C15.3959 28.9144 15.4832 28.9434 15.5623 28.9884C15.6415 29.0333 15.711 29.0935 15.7669 29.1653C15.8228 29.2372 15.864 29.3193 15.8882 29.4071C15.9123 29.4949 15.919 29.5865 15.9077 29.6769C15.8964 29.7672 15.8675 29.8544 15.8225 29.9336Z" fill="#263238"/>
<path d="M22.4338 34.5509L22.3754 33.1649C22.4664 33.1611 22.5572 33.1752 22.6428 33.2065C22.7283 33.2378 22.8069 33.2856 22.8739 33.3472C22.941 33.4089 22.9953 33.4831 23.0336 33.5657C23.072 33.6483 23.0937 33.7377 23.0976 33.8287C23.1014 33.9197 23.0873 34.0106 23.056 34.0961C23.0247 34.1817 22.9769 34.2602 22.9153 34.3273C22.8536 34.3944 22.7794 34.4486 22.6968 34.487C22.6141 34.5254 22.5248 34.5471 22.4338 34.5509Z" fill="#263238"/>
<path d="M25.838 32.7189L22.1313 33.2579L22.2853 33.5154L25.8433 32.9977L25.838 32.7189Z" fill="#263238"/>
<path d="M13.855 41.8845C14.2958 40.164 14.9171 39.6037 16.4119 39.5639C17.1836 39.6164 17.9514 39.7148 18.7113 39.8586C18.868 40.5835 20.7452 41.0774 22.6436 40.6844C23.2092 40.849 24.704 41.2579 25.1713 41.4278C26.5149 41.9137 27.168 43.3104 27.2557 47.7392C27.2557 47.7392 27.5212 58.243 27.2557 60.0565C23.8677 61.3841 20.3522 61.3177 18.4086 60.8849C14.3675 59.9795 13.8948 58.2988 13.8948 58.2988C13.8948 58.2988 14.1073 54.0824 14.2427 50.8776C14.0409 48.8358 13.7355 47.3011 13.6267 45.6708C13.5271 44.4042 13.604 43.13 13.855 41.8845Z" fill="#55BE88"/>
<path d="M36.7855 41.1596C37.1121 40.3312 37.5821 38.8549 38.3627 37.846C39.1433 36.837 39.4248 36.0962 39.7248 36.537C40.1284 37.1211 39.2177 38.2894 39.4195 38.3956C39.6212 38.5018 40.3806 40.0498 40.4576 40.9047C40.5346 41.7597 38.2698 43.9104 38.2698 43.9104L36.7855 41.1596Z" fill="#FFBDA7"/>
<path d="M25.1716 41.4278C25.8636 41.5607 26.511 41.8657 27.0541 42.3146C27.9967 43.1112 32.7548 46.8284 32.7548 46.8284L37.0296 40.6286L39.1219 43.0368C39.1219 43.0368 35.9888 49.0003 34.6771 51.2307C34.2682 51.929 33.2327 52.0591 31.4458 51.0289C29.9589 50.1713 25.0734 47.1046 25.0734 47.1046C25.0734 47.1046 23.8546 43.5599 25.1716 41.4278Z" fill="#FFBDA7"/>
<path d="M24.9139 41.3402C25.4078 41.3684 25.8909 41.4957 26.3344 41.7146C27.0434 42.0757 32.7546 46.7222 32.7546 46.7222L34.2123 44.7229C35.3886 45.0203 36.2515 45.5593 37.1543 46.7461C37.1543 46.7461 35.5612 50.1474 34.8921 51.2918C34.223 52.4362 33.6441 52.1892 32.375 51.6423C31.1058 51.0953 25.8724 48.0312 25.8724 48.0312C25.8724 48.0312 24.3829 47.0143 24.1492 45.315C23.7138 42.0837 24.9139 41.3402 24.9139 41.3402Z" fill="#55BE88"/>
<path opacity="0.1" d="M24.9139 41.3402C25.4078 41.3684 25.8909 41.4957 26.3344 41.7146C27.0434 42.0757 32.7546 46.7222 32.7546 46.7222L34.2123 44.7229C35.3886 45.0203 36.2515 45.5593 37.1543 46.7461C37.1543 46.7461 35.5612 50.1474 34.8921 51.2918C34.223 52.4362 33.6441 52.1892 32.375 51.6423C31.1058 51.0953 25.8724 48.0312 25.8724 48.0312C25.8724 48.0312 24.3829 47.0143 24.1492 45.315C23.7138 42.0837 24.9139 41.3402 24.9139 41.3402Z" fill="black"/>
<path opacity="0.1" d="M32.7549 46.7222C33.1808 47.1366 33.5841 47.5736 33.963 48.0312C33.963 48.0312 33.9311 47.2135 33.0071 46.3771L32.7549 46.7222Z" fill="black"/>
<path d="M34.212 44.7229L34.9555 43.6449C35.5726 43.7419 36.1594 43.979 36.6707 44.3379C37.1428 44.6351 37.532 45.0471 37.8018 45.5354L37.154 46.7461C36.3642 45.8294 35.3507 45.1324 34.212 44.7229Z" fill="#55BE88"/>
<path opacity="0.25" d="M34.212 44.7229L34.9555 43.6449C35.5726 43.7419 36.1594 43.979 36.6707 44.3379C37.1428 44.6351 37.532 45.0471 37.8018 45.5354L37.154 46.7461C36.3642 45.8294 35.3507 45.1324 34.212 44.7229Z" fill="black"/>
<path d="M37.353 45.6708C37.353 45.7236 37.332 45.7742 37.2947 45.8116C37.2573 45.8489 37.2067 45.8699 37.1538 45.8699C37.101 45.8699 37.0504 45.8489 37.013 45.8116C36.9757 45.7742 36.9547 45.7236 36.9547 45.6708C36.9547 45.6179 36.9757 45.5673 37.013 45.5299C37.0504 45.4926 37.101 45.4716 37.1538 45.4716C37.2067 45.4716 37.2573 45.4926 37.2947 45.5299C37.332 45.5673 37.353 45.6179 37.353 45.6708Z" fill="#455A64"/>
<path d="M18.289 38.77L18.2571 39.1736C18.2571 39.1736 18.4563 39.7418 19.5847 39.9542C21.5071 40.3127 22.1788 39.7152 22.1788 39.7152L22.2266 39.3701C22.2266 39.3701 22.4125 39.2931 22.7231 39.532C23.1961 40.0249 23.6394 40.5453 24.0507 41.0906C24.0507 41.0906 23.6843 40.9818 22.4842 41.4942C21.2856 41.9603 19.9652 42.0099 18.7351 41.6349C18.3925 41.5207 18.086 41.3187 17.846 41.0489C17.6061 40.7791 17.4411 40.4511 17.3677 40.0976C17.3411 39.7471 17.9571 38.6319 18.289 38.77Z" fill="#55BE88"/>
<path opacity="0.25" d="M18.289 38.77L18.2571 39.1736C18.2571 39.1736 18.4563 39.7418 19.5847 39.9542C21.5071 40.3127 22.1788 39.7152 22.1788 39.7152L22.2266 39.3701C22.2266 39.3701 22.4125 39.2931 22.7231 39.532C23.1961 40.0249 23.6394 40.5453 24.0507 41.0906C24.0507 41.0906 23.6843 40.9818 22.4842 41.4942C21.2856 41.9603 19.9652 42.0099 18.7351 41.6349C18.3925 41.5207 18.086 41.3187 17.846 41.0489C17.6061 40.7791 17.4411 40.4511 17.3677 40.0976C17.3411 39.7471 17.9571 38.6319 18.289 38.77Z" fill="black"/>
<path d="M39.3556 38.2735C39.3556 38.2735 42.0931 38.0372 42.494 38.2735C42.8949 38.5098 42.7728 39.694 42.494 40.4215C42.2152 41.149 40.8186 41.6217 39.5229 42.4979C39.5202 42.3678 39.3556 38.2735 39.3556 38.2735Z" fill="#FFBDA7"/>
<path d="M39.5225 42.4925C40.0535 42.1022 40.0535 41.6243 40.165 40.8623C40.2765 40.1002 42.3608 39.2692 42.4272 39.848C42.4936 40.4268 42.6927 40.8915 42.0396 41.5792C41.3864 42.2668 40.481 43.005 39.5225 42.4925Z" fill="#FFA8A7"/>
<path d="M39.6683 37.5885C39.1692 38.2363 39.0842 39.001 38.8213 39.4232C38.5585 39.8454 38.1575 40.3313 38.7364 40.4083C39.3152 40.4853 40.0188 39.7312 40.3295 39.0435C40.4903 38.6566 40.7921 38.3453 41.1738 38.1726C40.9083 38.0797 41.0437 36.9884 40.8525 36.845C40.8605 36.8397 39.8754 37.2406 39.6683 37.5885Z" fill="#FFA8A7"/>
</svg>
